<?xml version="1.0" encoding="UTF-8"?>
<svg xmlns="http://www.w3.org/2000/svg" version="1.1" width="100" height="100" viewBox="0 0 100 100"><rect x="0" y="0" width="100" height="100" fill="#ffffff"/><g transform="scale(3.448)"><g transform="translate(0,0)"><path fill-rule="evenodd" d="M8 0L8 1L9 1L9 2L8 2L8 5L9 5L9 4L11 4L11 5L10 5L10 10L9 10L9 12L8 12L8 11L7 11L7 10L8 10L8 9L9 9L9 8L8 8L8 9L7 9L7 8L6 8L6 9L4 9L4 8L0 8L0 9L3 9L3 10L5 10L5 12L6 12L6 13L2 13L2 12L3 12L3 11L2 11L2 10L0 10L0 12L1 12L1 13L0 13L0 17L1 17L1 18L0 18L0 19L1 19L1 18L2 18L2 19L3 19L3 20L1 20L1 21L4 21L4 20L5 20L5 18L6 18L6 19L7 19L7 18L8 18L8 17L9 17L9 18L10 18L10 19L8 19L8 20L6 20L6 21L8 21L8 22L10 22L10 21L11 21L11 20L12 20L12 19L11 19L11 18L10 18L10 17L9 17L9 16L12 16L12 17L13 17L13 18L14 18L14 20L15 20L15 21L14 21L14 22L13 22L13 23L11 23L11 24L9 24L9 25L8 25L8 29L12 29L12 28L14 28L14 27L15 27L15 26L16 26L16 27L17 27L17 26L18 26L18 29L19 29L19 28L20 28L20 29L21 29L21 27L22 27L22 25L23 25L23 28L24 28L24 29L25 29L25 28L26 28L26 25L28 25L28 27L27 27L27 29L28 29L28 27L29 27L29 24L26 24L26 25L25 25L25 23L26 23L26 22L27 22L27 23L28 23L28 22L29 22L29 21L27 21L27 18L28 18L28 15L29 15L29 13L27 13L27 12L26 12L26 11L28 11L28 12L29 12L29 11L28 11L28 10L29 10L29 8L28 8L28 10L26 10L26 11L24 11L24 10L25 10L25 9L27 9L27 8L24 8L24 9L22 9L22 8L21 8L21 6L20 6L20 5L21 5L21 4L20 4L20 3L21 3L21 2L20 2L20 3L19 3L19 5L18 5L18 3L17 3L17 2L19 2L19 1L21 1L21 0L18 0L18 1L17 1L17 0L16 0L16 2L15 2L15 1L14 1L14 0L12 0L12 1L11 1L11 0L10 0L10 1L9 1L9 0ZM13 1L13 2L11 2L11 4L12 4L12 3L13 3L13 2L14 2L14 1ZM13 4L13 5L12 5L12 6L11 6L11 8L12 8L12 6L13 6L13 10L14 10L14 8L15 8L15 7L16 7L16 8L17 8L17 7L18 7L18 5L15 5L15 4ZM13 5L13 6L14 6L14 7L15 7L15 6L14 6L14 5ZM8 6L8 7L9 7L9 6ZM16 6L16 7L17 7L17 6ZM19 6L19 8L20 8L20 6ZM6 9L6 10L7 10L7 9ZM11 9L11 10L12 10L12 9ZM15 9L15 11L14 11L14 13L15 13L15 12L16 12L16 13L17 13L17 12L18 12L18 14L15 14L15 17L16 17L16 19L18 19L18 18L19 18L19 21L20 21L20 19L21 19L21 16L22 16L22 19L23 19L23 16L24 16L24 15L25 15L25 17L24 17L24 20L26 20L26 19L25 19L25 18L26 18L26 17L27 17L27 15L25 15L25 14L27 14L27 13L25 13L25 12L22 12L22 10L21 10L21 9L20 9L20 10L19 10L19 9L17 9L17 10L19 10L19 11L17 11L17 12L16 12L16 9ZM20 10L20 11L19 11L19 12L20 12L20 13L19 13L19 15L20 15L20 14L21 14L21 15L22 15L22 16L23 16L23 15L24 15L24 14L23 14L23 13L22 13L22 14L21 14L21 12L20 12L20 11L21 11L21 10ZM6 11L6 12L7 12L7 11ZM11 11L11 13L6 13L6 14L5 14L5 17L6 17L6 18L7 18L7 17L8 17L8 16L9 16L9 15L10 15L10 14L11 14L11 13L12 13L12 12L13 12L13 11ZM1 13L1 14L2 14L2 13ZM3 14L3 16L2 16L2 15L1 15L1 16L2 16L2 18L3 18L3 19L4 19L4 18L3 18L3 16L4 16L4 14ZM6 14L6 15L7 15L7 16L6 16L6 17L7 17L7 16L8 16L8 15L7 15L7 14ZM12 14L12 16L14 16L14 14ZM22 14L22 15L23 15L23 14ZM16 16L16 17L17 17L17 18L18 18L18 17L19 17L19 16L18 16L18 17L17 17L17 16ZM10 19L10 20L11 20L11 19ZM8 20L8 21L9 21L9 20ZM15 21L15 23L14 23L14 24L12 24L12 26L11 26L11 25L10 25L10 26L9 26L9 28L12 28L12 26L13 26L13 27L14 27L14 26L13 26L13 25L15 25L15 24L16 24L16 25L17 25L17 24L18 24L18 25L19 25L19 26L21 26L21 25L20 25L20 24L19 24L19 23L17 23L17 24L16 24L16 21ZM21 21L21 24L24 24L24 21ZM22 22L22 23L23 23L23 22ZM24 26L24 28L25 28L25 26ZM16 28L16 29L17 29L17 28ZM0 0L0 7L7 7L7 0ZM1 1L1 6L6 6L6 1ZM2 2L2 5L5 5L5 2ZM22 0L22 7L29 7L29 0ZM23 1L23 6L28 6L28 1ZM24 2L24 5L27 5L27 2ZM0 22L0 29L7 29L7 22ZM1 23L1 28L6 28L6 23ZM2 24L2 27L5 27L5 24Z" fill="#000000"/></g></g></svg>
